<mxfile host="app.diagrams.net" modified="2024-07-02T22:55:57.735Z" agent="Mozilla/5.0 (X11; Linux x86_64; rv:127.0) Gecko/20100101 Firefox/127.0" version="24.6.4" etag="heFOJOK4Met1k2F6-ukJ" type="github">
  <diagram name="Page-1" id="2LrJeBbQaCbOpwuLGc19">
    <mxGraphModel>
      <root>
        <mxCell id="0" />
        <mxCell id="1" parent="0" />
      </root>
    </mxGraphModel>
  </diagram>
</mxfile>
